{
  "accessors": [
    {
      "bufferView": 3,
      "componentType": 5126,
      "count": 1377,
      "max": [
        0.40175992250442505,
        1.5038031339645386,
        0.36778226494789124
      ],
      "min": [
        -0.6660071611404419,
        0.00016289949417114258,
        -0.36778274178504944
      ],
      "type": "VEC3"
    },
    {
      "bufferView": 3,
      "byteOffset": 16524,
      "componentType": 5126,
      "count": 1377,
      "max": [
        1.0,
        1.0,
        1.0
      ],
      "min": [
        -1.0,
        -1.0,
        -1.0
      ],
      "type": "VEC3"
    },
    {
      "bufferView": 2,
      "componentType": 5126,
      "count": 1377,
      "max": [
        0.9963552951812744,
        0.9917421936988831
      ],
      "min": [
        0.0028274087235331535,
        0.004043406806886196
      ],
      "type": "VEC2"
    },
    {
      "bufferView": 1,
      "componentType": 5125,
      "count": 4470,
      "type": "SCALAR"
    },
    {
      "bufferView": 5,
      "componentType": 5126,
      "count": 5,
      "max": [
        1.0,
        0.4593169689178467,
        0.9999892115592957,
        0.0,
        0.03647527098655701,
        1.0000001192092896,
        0.9326515793800354,
        0.0,
        0.5492466688156128,
        1.5263870167814275e-08,
        1.0000001192092896,
        0.0,
        3.2419231188463016e-10,
        0.0,
        0.0,
        1.0
      ],
      "min": [
        -2.9011569495196454e-05,
        -0.9326516389846802,
        -0.3033648729324341,
        0.0,
        -3.6388325685976497e-10,
        0.36077871918678284,
        0.0,
        0.0,
        -1.000000238418579,
        -0.7316226959228516,
        -2.901181323977653e-05,
        0.0,
        -0.03249676525592804,
        -0.8909163475036621,
        -0.8309234380722046,
        1.0
      ],
      "type": "MAT4"
    },
    {
      "bufferView": 0,
      "componentType": 5123,
      "count": 1377,
      "type": "VEC4"
    },
    {
      "bufferView": 4,
      "componentType": 5126,
      "count": 1377,
      "max": [
        1.0,
        0.0,
        0.0,
        0.0
      ],
      "min": [
        1.0,
        0.0,
        0.0,
        0.0
      ],
      "type": "VEC4"
    },
    {
      "bufferView": 6,
      "componentType": 5126,
      "count": 210,
      "max": [
        7.0
      ],
      "min": [
        0.03333333507180214
      ],
      "type": "SCALAR"
    },
    {
      "bufferView": 8,
      "componentType": 5126,
      "count": 210,
      "max": [
        0.2567228674888611,
        0.7071045637130737,
        0.7071047425270081,
        0.7071047425270081
      ],
      "min": [
        -0.7071046233177185,
        -0.6549450755119324,
        -0.7069979310035706,
        -0.0017312394920736551
      ],
      "type": "VEC4"
    },
    {
      "bufferView": 6,
      "byteOffset": 840,
      "componentType": 5126,
      "count": 129,
      "max": [
        7.0
      ],
      "min": [
        0.03333333507180214
      ],
      "type": "SCALAR"
    },
    {
      "bufferView": 7,
      "componentType": 5126,
      "count": 129,
      "max": [
        1.0,
        0.9999998807907104,
        1.0
      ],
      "min": [
        0.9999998807907104,
        0.9999996423721313,
        1.0
      ],
      "type": "VEC3"
    },
    {
      "bufferView": 6,
      "byteOffset": 1356,
      "componentType": 5126,
      "count": 210,
      "max": [
        7.0
      ],
      "min": [
        0.03333333507180214
      ],
      "type": "SCALAR"
    },
    {
      "bufferView": 7,
      "byteOffset": 1548,
      "componentType": 5126,
      "count": 210,
      "max": [
        6.97663490427658e-05,
        1.0132464170455933,
        2.037620916439664e-08
      ],
      "min": [
        -0.0007042467477731407,
        0.8468335866928101,
        -2.0185726423704864e-09
      ],
      "type": "VEC3"
    },
    {
      "bufferView": 6,
      "byteOffset": 2196,
      "componentType": 5126,
      "count": 210,
      "max": [
        7.0
      ],
      "min": [
        0.03333333507180214
      ],
      "type": "SCALAR"
    },
    {
      "bufferView": 8,
      "byteOffset": 3360,
      "componentType": 5126,
      "count": 210,
      "max": [
        -0.001650565885938704,
        0.9999973177909851,
        0.0016382542671635747,
        0.7044323682785034
      ],
      "min": [
        -0.0023255629930645227,
        0.7097674012184143,
        3.337086695864855e-08,
        -1.4572925465472508e-05
      ],
      "type": "VEC4"
    },
    {
      "bufferView": 6,
      "byteOffset": 3036,
      "componentType": 5126,
      "count": 122,
      "max": [
        7.0
      ],
      "min": [
        0.03333333507180214
      ],
      "type": "SCALAR"
    },
    {
      "bufferView": 7,
      "byteOffset": 4068,
      "componentType": 5126,
      "count": 122,
      "max": [
        1.0000001192092896,
        0.9999998807907104,
        1.0
      ],
      "min": [
        0.9999999403953552,
        0.9999998807907104,
        0.9999998807907104
      ],
      "type": "VEC3"
    },
    {
      "bufferView": 6,
      "byteOffset": 3524,
      "componentType": 5126,
      "count": 210,
      "max": [
        7.0
      ],
      "min": [
        0.03333333507180214
      ],
      "type": "SCALAR"
    },
    {
      "bufferView": 8,
      "byteOffset": 6720,
      "componentType": 5126,
      "count": 210,
      "max": [
        0.16731835901737213,
        0.5116853713989258,
        0.8376542925834656,
        0.8376546502113342
      ],
      "min": [
        -0.545982301235199,
        -0.5459822416305542,
        -0.8375009894371033,
        0.01536289881914854
      ],
      "type": "VEC4"
    },
    {
      "bufferView": 6,
      "byteOffset": 4364,
      "componentType": 5126,
      "count": 166,
      "max": [
        7.0
      ],
      "min": [
        0.03333333507180214
      ],
      "type": "SCALAR"
    },
    {
      "bufferView": 7,
      "byteOffset": 5532,
      "componentType": 5126,
      "count": 166,
      "max": [
        1.0000001192092896,
        1.000000238418579,
        1.0000001192092896
      ],
      "min": [
        0.9999999403953552,
        1.0,
        1.0000001192092896
      ],
      "type": "VEC3"
    }
  ],
  "animations": [
    {
      "channels": [
        {
          "sampler": 0,
          "target": {
            "node": 9,
            "path": "rotation"
          }
        },
        {
          "sampler": 1,
          "target": {
            "node": 9,
            "path": "scale"
          }
        },
        {
          "sampler": 2,
          "target": {
            "node": 10,
            "path": "translation"
          }
        },
        {
          "sampler": 3,
          "target": {
            "node": 10,
            "path": "rotation"
          }
        },
        {
          "sampler": 4,
          "target": {
            "node": 10,
            "path": "scale"
          }
        },
        {
          "sampler": 5,
          "target": {
            "node": 11,
            "path": "rotation"
          }
        },
        {
          "sampler": 6,
          "target": {
            "node": 11,
            "path": "scale"
          }
        }
      ],
      "name": "Action",
      "samplers": [
        {
          "input": 7,
          "interpolation": "LINEAR",
          "output": 8
        },
        {
          "input": 9,
          "interpolation": "LINEAR",
          "output": 10
        },
        {
          "input": 11,
          "interpolation": "LINEAR",
          "output": 12
        },
        {
          "input": 13,
          "interpolation": "LINEAR",
          "output": 14
        },
        {
          "input": 15,
          "interpolation": "LINEAR",
          "output": 16
        },
        {
          "input": 17,
          "interpolation": "LINEAR",
          "output": 18
        },
        {
          "input": 19,
          "interpolation": "LINEAR",
          "output": 20
        }
      ]
    }
  ],
  "asset": {
    "extras": {
      "author": "Mavriarch (https://sketchfab.com/Mavriarch)",
      "license": "CC-BY-SA-4.0 (http://creativecommons.org/licenses/by-sa/4.0/)",
      "source": "https://sketchfab.com/3d-models/magic-globe-game-ready-da3ba5ce540c4e8796ba08a77ed00f62",
      "title": "Magic... Globe? [Game Ready]"
    },
    "generator": "Sketchfab-12.67.0",
    "version": "2.0"
  },
  "bufferViews": [
    {
      "buffer": 0,
      "byteLength": 11016,
      "byteStride": 8,
      "name": "shortBufferViews",
      "target": 34962
    },
    {
      "buffer": 0,
      "byteLength": 17880,
      "byteOffset": 11016,
      "name": "floatBufferViews",
      "target": 34963
    },
    {
      "buffer": 0,
      "byteLength": 11016,
      "byteOffset": 28896,
      "byteStride": 8,
      "name": "floatBufferViews",
      "target": 34962
    },
    {
      "buffer": 0,
      "byteLength": 33048,
      "byteOffset": 39912,
      "byteStride": 12,
      "name": "floatBufferViews",
      "target": 34962
    },
    {
      "buffer": 0,
      "byteLength": 22032,
      "byteOffset": 72960,
      "byteStride": 16,
      "name": "floatBufferViews",
      "target": 34962
    },
    {
      "buffer": 0,
      "byteLength": 320,
      "byteOffset": 94992,
      "name": "floatBufferViews"
    },
    {
      "buffer": 0,
      "byteLength": 5028,
      "byteOffset": 95312,
      "name": "floatBufferViews"
    },
    {
      "buffer": 0,
      "byteLength": 7524,
      "byteOffset": 100340,
      "byteStride": 12,
      "name": "floatBufferViews"
    },
    {
      "buffer": 0,
      "byteLength": 10080,
      "byteOffset": 107864,
      "byteStride": 16,
      "name": "floatBufferViews"
    }
  ],
  "buffers": [
    {
      "byteLength": 117944,
      "uri": "scene.bin"
    }
  ],
  "images": [
    {
      "uri": "textures/CristalBall_Pointer_baseColor.png"
    },
    {
      "uri": "textures/CristalBall_Pointer_metallicRoughness.png"
    },
    {
      "uri": "textures/CristalBall_Pointer_emissive.png"
    }
  ],
  "materials": [
    {
      "doubleSided": true,
      "emissiveFactor": [
        1.0,
        1.0,
        1.0
      ],
      "emissiveTexture": {
        "index": 2
      },
      "name": "CristalBall_Pointer",
      "pbrMetallicRoughness": {
        "baseColorTexture": {
          "index": 0
        },
        "metallicRoughnessTexture": {
          "index": 1
        }
      }
    }
  ],
  "meshes": [
    {
      "name": "Object_0",
      "primitives": [
        {
          "attributes": {
            "JOINTS_0": 5,
            "NORMAL": 1,
            "POSITION": 0,
            "TEXCOORD_0": 2,
            "WEIGHTS_0": 6
          },
          "indices": 3,
          "material": 0,
          "mode": 4
        }
      ]
    }
  ],
  "nodes": [
    {
      "children": [
        1
      ],
      "matrix": [
        1.0,
        0.0,
        0.0,
        0.0,
        0.0,
        2.220446049250313e-16,
        -1.0,
        0.0,
        0.0,
        1.0,
        2.220446049250313e-16,
        0.0,
        0.0,
        0.0,
        0.0,
        1.0
      ],
      "name": "Sketchfab_model"
    },
    {
      "children": [
        2
      ],
      "name": "root"
    },
    {
      "children": [
        3
      ],
      "matrix": [
        1.0,
        0.0,
        0.0,
        0.0,
        0.0,
        2.220446049250313e-16,
        1.0,
        0.0,
        0.0,
        -1.0,
        2.220446049250313e-16,
        0.0,
        0.0,
        0.0,
        0.0,
        1.0
      ],
      "name": "GLTF_SceneRootNode"
    },
    {
      "children": [
        4
      ],
      "name": "Armature_7"
    },
    {
      "children": [
        5,
        7,
        6
      ],
      "name": "GLTF_created_0"
    },
    {
      "children": [
        8
      ],
      "name": "GLTF_created_0_rootJoint"
    },
    {
      "name": "Magic Ball_6"
    },
    {
      "mesh": 0,
      "name": "Object_7",
      "skin": 0
    },
    {
      "children": [
        9,
        10,
        11
      ],
      "name": "Base_5",
      "rotation": [
        -2.980232594040899e-08,
        0.0,
        0.0,
        1.0
      ],
      "scale": [
        1.0,
        0.9999999403953552,
        0.9999999403953552
      ],
      "translation": [
        0.0,
        0.029092609882354736,
        0.0
      ]
    },
    {
      "name": "Pointer_2",
      "rotation": [
        -0.39098653197288513,
        0.5891768336296082,
        0.40843716263771057,
        0.5772168040275574
      ],
      "scale": [
        0.9999998807907104,
        0.9999997615814209,
        1.0
      ],
      "translation": [
        0.0,
        0.8618333339691162,
        0.0
      ]
    },
    {
      "name": "Top_3",
      "rotation": [
        -0.001650565885938704,
        0.7097673416137695,
        0.001638254034332931,
        0.7044323682785034
      ],
      "scale": [
        0.9999999403953552,
        0.9999998807907104,
        0.9999999403953552
      ],
      "translation": [
        -0.000506859680172056,
        0.9708081483840942,
        1.4665141989667063e-08
      ]
    },
    {
      "name": "Arch_4",
      "rotation": [
        -0.4925517141819,
        -0.23556655645370483,
        -0.09039077907800674,
        0.8329050540924072
      ],
      "scale": [
        1.0,
        1.0000001192092896,
        1.0000001192092896
      ],
      "translation": [
        0.0,
        0.8618333339691162,
        0.0
      ]
    }
  ],
  "samplers": [
    {
      "magFilter": 9729,
      "minFilter": 9987,
      "wrapS": 10497,
      "wrapT": 10497
    }
  ],
  "scene": 0,
  "scenes": [
    {
      "name": "Sketchfab_Scene",
      "nodes": [
        0
      ]
    }
  ],
  "skins": [
    {
      "inverseBindMatrices": 4,
      "joints": [
        5,
        8,
        9,
        10,
        11
      ],
      "skeleton": 5
    }
  ],
  "textures": [
    {
      "sampler": 0,
      "source": 0
    },
    {
      "sampler": 0,
      "source": 1
    },
    {
      "sampler": 0,
      "source": 2
    }
  ]
}
